# xmcd CD database file
#
# Track frame offsets:
#	150
#	18474
#	40981
#	55131
#	80773
#	107515
#	127275
#	155180
#	174429
#	195811
#	221715
#	238227
#	259722
#	276244
#	295346
#
# Disc length: 4291 seconds
#
# Revision: 0
# Processed by: cddbd v1.4PL0 Copyright (c) Steve Scherf et al.
# Submitted via: CDex 1.51
#
DISCID=e210c10f
DTITLE=Michael Franks - Karen's Mix
DYEAR=1999
DGENRE=Jazz
TTITLE0=Mr Blue
TTITLE1=I Really Hope It's You
TTITLE2=When It's Over
TTITLE3=Living On The Inside
TTITLE4=Underneath The Apple Tree
TTITLE5=Tiger In The Rain
TTITLE6=Lifeline
TTITLE7=Still Life
TTITLE8=No One But You
TTITLE9=Amazon
TTITLE10=Never Say Die
TTITLE11=Rainy Night In Tokyo
TTITLE12=How The Garden Grows
TTITLE13=Now You're In My Dreams
TTITLE14=Innuendo
EXTD=YEAR: 1999
EXTT0=
EXTT1=
EXTT2=
EXTT3=
EXTT4=
EXTT5=
EXTT6=
EXTT7=
EXTT8=
EXTT9=
EXTT10=
EXTT11=
EXTT12=
EXTT13=
EXTT14=
PLAYORDER=
